<svg aria-hidden="true" style="position: absolute; width: 0; height: 0; overflow: hidden;" version="1.1" xmlns="http://www.w3.org/2000/svg" xmlns:xlink="http://www.w3.org/1999/xlink">
<defs>
<symbol id="icon-close" viewBox="0 0 32 32">
<path fill="#fff" style="fill: var(--color1, #fff)" d="M28.445 1.293l2.262 2.262-12.445 12.445 12.445 12.445-2.262 2.262-12.445-12.445-12.445 12.445-2.262-2.262 12.445-12.445-12.445-12.445 2.262-2.262 12.445 12.445 12.445-12.445z"></path>
</symbol>
<symbol id="icon-facebook" viewBox="0 0 32 32">
<path fill="#fff" style="fill: var(--color1, #fff)" d="M30.233 0h-28.467c-0.976 0-1.767 0.791-1.767 1.767v28.468c0 0.975 0.791 1.765 1.767 1.765h15.327v-12.392h-4.171v-4.829h4.171v-3.561c0-4.133 2.524-6.384 6.212-6.384 1.767 0 3.284 0.132 3.727 0.191v4.32l-2.557 0.001c-2.005 0-2.393 0.953-2.393 2.351v3.084h4.783l-0.623 4.829h-4.16v12.391h8.155c0.973 0 1.764-0.791 1.764-1.767v-28.467c0-0.976-0.791-1.767-1.767-1.767z"></path>
</symbol>
<symbol id="icon-hamburger" viewBox="0 0 48 32">
<path fill="#fff" style="fill: var(--color1, #fff)" d="M0 0h48v4h-48zM0 14h48v4h-48zM0 28h48v4h-48z"></path>
</symbol>
<symbol id="icon-instagram" viewBox="0 0 32 32">
<path fill="#fff" style="fill: var(--color1, #fff)" d="M16 2.884c4.272 0 4.779 0.016 6.467 0.093 4.336 0.197 6.361 2.255 6.559 6.559 0.077 1.687 0.092 2.193 0.092 6.465 0 4.273-0.016 4.779-0.092 6.465-0.199 4.3-2.219 6.361-6.559 6.559-1.688 0.077-2.192 0.093-6.467 0.093-4.272 0-4.779-0.016-6.465-0.093-4.347-0.199-6.361-2.265-6.559-6.56-0.077-1.687-0.093-2.192-0.093-6.465 0-4.272 0.017-4.777 0.093-6.465 0.199-4.303 2.219-6.361 6.559-6.559 1.688-0.076 2.193-0.092 6.465-0.092zM16 0c-4.345 0-4.889 0.019-6.596 0.096-5.811 0.267-9.040 3.491-9.307 9.307-0.079 1.708-0.097 2.252-0.097 6.597s0.019 4.891 0.096 6.597c0.267 5.811 3.491 9.040 9.307 9.307 1.708 0.077 2.252 0.096 6.597 0.096s4.891-0.019 6.597-0.096c5.805-0.267 9.043-3.491 9.305-9.307 0.079-1.707 0.097-2.252 0.097-6.597s-0.019-4.889-0.096-6.596c-0.261-5.805-3.489-9.040-9.305-9.307-1.708-0.079-2.253-0.097-6.599-0.097zM16 7.784c-4.538 0-8.216 3.678-8.216 8.216s3.678 8.216 8.216 8.216v0c4.538 0 8.216-3.678 8.216-8.216s-3.678-8.216-8.216-8.216v0zM16 21.333c-2.946 0-5.333-2.388-5.333-5.333s2.388-5.333 5.333-5.333v0c2.946 0 5.333 2.388 5.333 5.333s-2.388 5.333-5.333 5.333v0zM24.541 5.54c-1.061 0-1.921 0.86-1.921 1.921s0.86 1.921 1.921 1.921v0c1.061 0 1.921-0.86 1.921-1.921s-0.86-1.921-1.921-1.921v0z"></path>
</symbol>
<symbol id="icon-pinterest" viewBox="0 0 32 32">
<path fill="#fff" style="fill: var(--color1, #fff)" d="M16 0c-8.836 0-16 7.163-16 16 0 6.779 4.217 12.568 10.169 14.899-0.14-1.265-0.267-3.207 0.056-4.588 0.291-1.249 1.876-7.953 1.876-7.953s-0.479-0.959-0.479-2.376c0-2.224 1.289-3.885 2.895-3.885 1.364 0 2.024 1.025 2.024 2.253 0 1.372-0.873 3.424-1.325 5.327-0.377 1.592 0.799 2.892 2.369 2.892 2.844 0 5.029-2.999 5.029-7.327 0-3.831-2.752-6.509-6.683-6.509-4.552 0-7.224 3.415-7.224 6.943 0 1.375 0.529 2.851 1.191 3.651 0.080 0.086 0.129 0.201 0.129 0.328 0 0.047-0.007 0.093-0.019 0.136l0.001-0.003-0.444 1.813c-0.071 0.293-0.232 0.356-0.536 0.215-1.999-0.931-3.248-3.852-3.248-6.199 0-5.047 3.667-9.683 10.572-9.683 5.551 0 9.864 3.956 9.864 9.241 0 5.515-3.476 9.952-8.303 9.952-1.621 0-3.145-0.841-3.667-1.837l-0.997 3.804c-0.361 1.391-1.336 3.133-1.989 4.195 1.499 0.463 3.089 0.713 4.739 0.713 8.836 0 16-7.164 16-16 0-8.837-7.164-16-16-16z"></path>
</symbol>
<symbol id="icon-twitter" viewBox="0 0 38 32">
<path fill="#fff" style="fill: var(--color1, #fff)" d="M38.4 4.091c-1.318 0.6-2.846 1.037-4.449 1.232l-0.076 0.008c1.63-0.986 2.855-2.501 3.448-4.303l0.016-0.056c-1.44 0.87-3.116 1.533-4.902 1.895l-0.101 0.017c-1.439-1.533-3.478-2.488-5.74-2.488-0.004 0-0.007 0-0.011 0h0.001c-5.086 0-8.824 4.746-7.675 9.672-6.562-0.338-12.335-3.457-16.205-8.19l-0.032-0.040c-0.671 1.135-1.067 2.502-1.067 3.961 0 2.722 1.379 5.122 3.476 6.539l0.028 0.018c-1.316-0.043-2.538-0.403-3.606-1.006l0.039 0.020c-0.086 3.65 2.53 7.064 6.318 7.824-0.621 0.175-1.333 0.276-2.070 0.276-0.527 0-1.041-0.052-1.539-0.15l0.050 0.008c1.037 3.155 3.927 5.405 7.352 5.47l0.008 0c-2.664 2.105-6.072 3.377-9.776 3.377-0.665 0-1.321-0.041-1.965-0.121l0.077 0.008c3.408 2.219 7.578 3.539 12.056 3.539 0.007 0 0.014 0 0.022 0h-0.001c14.627 0 22.891-12.354 22.392-23.434 1.548-1.128 2.852-2.479 3.895-4.022l0.036-0.057z"></path>
</symbol>
<symbol id="icon-logo" viewBox="0 0 192 32">
<path fill="#fff" style="fill: var(--color1, #fff)" d="M2.694 26.324c0 0 0.001 0 0.001 0 1.488 0 2.694-1.206 2.694-2.694 0-0.001 0-0.002 0-0.003v0-20.93c0-1.488-1.206-2.695-2.695-2.695s-2.695 1.206-2.695 2.695v0 20.93c0 0.001 0 0.002 0 0.003 0 1.488 1.206 2.694 2.694 2.694v0zM18.2 26.537c5.92 0 10.317-4.435 10.317-9.898v-0.071c0-5.464-4.36-9.827-10.246-9.827-5.92 0-10.317 4.434-10.317 9.898v0.070c0 5.464 4.361 9.828 10.246 9.828zM18.271 21.889c-2.978 0-4.999-2.448-4.999-5.25v-0.071c0-2.803 1.844-5.18 4.928-5.18 2.978 0 5 2.448 5 5.25v0.072c0 2.802-1.844 5.18-4.929 5.18zM40.158 26.537c5.921 0 10.317-4.435 10.317-9.898v-0.071c0-5.464-4.36-9.827-10.246-9.827-5.92 0-10.317 4.434-10.317 9.898v0.070c0 5.464 4.361 9.828 10.246 9.828zM40.229 21.889c-2.978 0-4.999-2.448-4.999-5.25v-0.071c0-2.803 1.844-5.18 4.928-5.18 2.979 0 5 2.448 5 5.25v0.072c0 2.802-1.844 5.18-4.929 5.18zM55.487 32c1.488 0 2.694-1.206 2.694-2.694 0-0.001 0-0.001 0-0.002v0-5.677c1.277 1.526 3.050 2.839 5.921 2.839 4.503 0 8.65-3.477 8.65-9.827v-0.071c0-6.35-4.218-9.827-8.65-9.827-2.8 0-4.609 1.312-5.92 3.086v-0.247c0-1.488-1.207-2.695-2.695-2.695s-2.695 1.207-2.695 2.695v0 19.725c0 0 0 0.001 0 0.001 0 1.488 1.206 2.694 2.694 2.694 0.001 0 0.001 0 0.002 0h-0zM62.719 21.89c-2.517 0-4.608-2.094-4.608-5.251v-0.071c0-3.158 2.091-5.25 4.608-5.25 2.518 0 4.645 2.092 4.645 5.25v0.070c0 3.193-2.127 5.251-4.645 5.251zM81.806 26.466c4.113 0 7.268-1.916 7.268-6.138v-0.070c0-3.478-3.084-4.755-5.743-5.642-2.057-0.71-3.865-1.206-3.865-2.27v-0.071c0-0.745 0.674-1.313 1.985-1.313 1.135 0 2.589 0.462 4.113 1.207 0.355 0.177 0.603 0.248 0.993 0.248 1.205 0 2.162-0.923 2.162-2.129 0-0.922-0.496-1.632-1.276-2.022-1.843-0.922-3.9-1.454-5.885-1.454-3.83 0-6.949 2.164-6.949 6.030v0.072c0 3.69 3.014 4.93 5.673 5.711 2.091 0.639 3.935 1.030 3.935 2.2v0.070c0 0.852-0.71 1.42-2.27 1.42-1.524 0-3.332-0.568-5.14-1.703-0.299-0.179-0.66-0.284-1.046-0.284-0.007 0-0.013 0-0.019 0h0.001c-1.205 0-2.127 0.923-2.127 2.129 0 0.851 0.461 1.49 1.028 1.845 2.305 1.49 4.822 2.164 7.162 2.164zM97.418 26.43c1.17 0 2.092-0.142 3.085-0.532 0.812-0.33 1.375-1.109 1.382-2.021v-0.001c-0.007-1.231-1.002-2.227-2.232-2.235h-0.001c-0.107 0-0.461 0.035-0.638 0.035-1.206 0-1.738-0.603-1.738-1.845v-8.124h2.376c0.001 0 0.003 0 0.004 0 1.27 0 2.3-1.030 2.3-2.3 0-0.002 0-0.004 0-0.006v0c0-0.002 0-0.004 0-0.006 0-1.27-1.030-2.3-2.3-2.3-0.001 0-0.003 0-0.004 0h-2.376v-2.377c0-1.488-1.206-2.695-2.695-2.695s-2.695 1.206-2.695 2.695v0 2.377h-0.177c-0.001 0-0.003 0-0.004 0-1.27 0-2.3 1.030-2.3 2.3 0 0.002 0 0.004 0 0.006v-0c0 0.002 0 0.004 0 0.006 0 1.27 1.030 2.3 2.3 2.3 0.001 0 0.003 0 0.004 0h0.177v9.011c0 4.4 2.234 5.712 5.531 5.712zM110.442 26.466c2.73 0 4.325-1.455 5.566-3.051v0.212c0 1.488 1.207 2.695 2.695 2.695s2.695-1.207 2.695-2.695v0-14.047c0-1.488-1.207-2.695-2.695-2.695s-2.695 1.207-2.695 2.695v0 8.124c0 2.554-1.311 3.867-3.368 3.867-2.056 0-3.261-1.313-3.261-3.867v-8.125c0-1.488-1.207-2.695-2.695-2.695s-2.695 1.207-2.695 2.695v0 9.827c0 4.363 2.376 7.060 6.453 7.060zM132.436 26.466c2.8 0 4.609-1.313 5.92-3.087v0.248c0 1.488 1.207 2.695 2.695 2.695s2.695-1.207 2.695-2.695v-20.93c0-1.488-1.207-2.695-2.695-2.695s-2.695 1.207-2.695 2.695v6.882c-1.276-1.526-3.048-2.838-5.92-2.838-4.503 0-8.65 3.476-8.65 9.827v0.070c0 6.35 4.218 9.828 8.65 9.828zM133.819 21.889c-2.518 0-4.645-2.093-4.645-5.25v-0.071c0-3.193 2.127-5.25 4.645-5.25 2.517 0 4.608 2.092 4.608 5.25v0.070c0 3.158-2.091 5.251-4.608 5.251zM149.927 5.179c1.702 0 3.014-0.993 3.014-2.554v-0.070c0-1.562-1.312-2.52-3.014-2.52s-3.013 0.958-3.013 2.52v0.070c0 1.561 1.311 2.555 3.013 2.555zM149.927 26.324c1.488 0 2.694-1.206 2.694-2.694 0-0.001 0-0.002 0-0.003v0-14.047c0-1.488-1.206-2.694-2.694-2.694s-2.694 1.206-2.694 2.694v14.048c0 0.001 0 0.002 0 0.003 0 1.488 1.206 2.694 2.694 2.694v0zM165.433 26.537c5.92 0 10.317-4.435 10.317-9.898v-0.071c0-5.464-4.361-9.827-10.246-9.827-5.921 0-10.317 4.434-10.317 9.898v0.070c0 5.464 4.36 9.828 10.246 9.828zM165.503 21.889c-2.977 0-4.998-2.448-4.998-5.25v-0.071c0-2.803 1.843-5.18 4.928-5.18 2.978 0 4.999 2.448 4.999 5.25v0.072c0 2.802-1.844 5.18-4.928 5.18zM184.733 26.466c4.112 0 7.267-1.916 7.267-6.138v-0.070c0-3.478-3.084-4.755-5.743-5.642-2.057-0.71-3.865-1.206-3.865-2.27v-0.071c0-0.745 0.674-1.313 1.986-1.313 1.134 0 2.588 0.462 4.112 1.207 0.355 0.177 0.603 0.248 0.993 0.248 1.205 0 2.162-0.923 2.162-2.129 0-0.922-0.496-1.632-1.276-2.022-1.843-0.922-3.9-1.454-5.885-1.454-3.83 0-6.949 2.164-6.949 6.030v0.072c0 3.69 3.014 4.93 5.673 5.711 2.091 0.639 3.935 1.030 3.935 2.2v0.070c0 0.852-0.71 1.42-2.27 1.42-1.524 0-3.332-0.568-5.14-1.703-0.299-0.179-0.66-0.284-1.046-0.284-0.006 0-0.012 0-0.018 0h0.001c-1.206 0-2.128 0.923-2.128 2.129 0 0.851 0.461 1.49 1.028 1.845 2.305 1.49 4.822 2.164 7.162 2.164z"></path>
</symbol>
</defs>
</svg>
